<svg xmlns="http://www.w3.org/2000/svg" width="70" height="70" viewBox="0 0 70 70" style="width: 100%; height: 100%;"><desc>Made with illustrio</desc>
  
<g class="base"><g fill="none" fill-rule="evenodd" stroke="none" class="main-stroke">
    
    
    <path fill="none" d="M21.8235294,0.149132941 C18.6397647,0.149132941 16.0588235,2.73007412 16.0588235,5.91383882 C16.0588235,7.83698588 17.0047294,9.53751235 18.4522059,10.5847947 C17.7486647,10.8189538 17.0827041,11.1313506 16.4577206,11.4983976 C17.7375668,12.8322476 18.5294118,14.6382938 18.5294118,16.6197212 C18.4778296,18.2273646 18.0361279,19.4532771 17.2169118,20.7373682 L35.4117647,20.7373682 C35.868,20.7373682 36.2352941,20.3700741 36.2352941,19.9138388 C36.2352941,19.4576035 35.868,19.0903094 35.4117647,19.0903094 L32.0790441,19.0903094 C31.7364987,15.1317019 28.9633853,11.839072 25.1948529,10.5847947 C26.6423294,9.53751235 27.5882353,7.83698588 27.5882353,5.91383882 C27.5882353,2.73007412 25.0072941,0.149132941 21.8235294,0.149132941 Z M11.1176471,10.8550153 C7.93388235,10.8550153 5.35294118,13.4359729 5.35294118,16.6197212 C5.35294118,18.5428682 6.29884706,20.2433947 7.74632353,21.2906771 C3.71786471,22.6314653 0.823529412,26.2961094 0.823529412,30.6197212 L11.1176471,30.6197212 L21.4117647,30.6197212 C21.4117647,26.2961094 18.5174294,22.6314653 14.4889706,21.2906771 C15.9364471,20.2433947 16.8823529,18.5428682 16.8823529,16.6197212 C16.8823529,13.4359729 14.3014118,10.8550153 11.1176471,10.8550153 Z M0.823529412,19.0903094 C0.367294118,19.0903094 0,19.4576035 0,19.9138388 C0,20.3700741 0.367294118,20.7373682 0.823529412,20.7373682 L5.01838235,20.7373682 C4.67215494,20.2271279 4.38927176,19.6729594 4.16911765,19.0903094 L0.823529412,19.0903094 Z" transform="translate(16.882 19.616)" stroke="none" class="main-stroke"></path>
  </g></g><style>
          .main-fill {fill: #aa8c41;}
          .main-stroke {stroke: #aa8c41;}
          .secondary-fill {fill: ;}
          .secondary-stroke {stroke: ;}

          .main-fill--darken {fill: #735e2c;}
          .main-stroke--darken {stroke: #735e2c;}
          .secondary-fill--darken {fill: #000000;}
          .secondary-stroke--darken {stroke: #000000;}

          .main-fill--darkener {fill: #4e401e;}
          .main-stroke--darkener {stroke: #4e401e;}
          .secondary-fill--darkener {fill: #000000;}
          .secondary-stroke--darkener {stroke: #000000;}
        </style></svg>