<svg xmlns="http://www.w3.org/2000/svg" width="70" height="70" viewBox="0 0 70 70" style="width: 100%; height: 100%;"><desc>Made with illustrio</desc>
  
<g class="base"><g fill="none" fill-rule="evenodd" stroke="none" class="main-stroke">
    
    
    <path fill="none" d="M6.58823529,0.149132941 L0,6.73736824 L6.58823529,6.73736824 L6.58823529,0.149132941 Z M8.23529412,0.149132941 L8.23529412,6.73736824 L8.23529412,7.56089765 C8.23524864,8.01570155 7.8665686,8.38438159 7.41176471,8.38442706 L6.58823529,8.38442706 L0,8.38442706 L0,34.7373682 L26.3529412,34.7373682 L26.3529412,27.9947212 L24.8602941,29.0756035 C24.8560035,29.0756369 24.8517171,29.0756369 24.8474265,29.0756035 L23.2389706,30.2336918 C22.9767823,30.4172812 22.6102672,30.4280855 22.3382353,30.2594271 C22.0662029,30.0907658 21.9043531,29.7523746 21.9522059,29.4358976 L22.2610294,27.4800153 L23.0716912,22.1914124 C23.1155651,21.9062319 23.2163495,21.6847239 23.3547794,21.4450888 L26.3529412,16.2465594 L26.3529412,0.149132941 L8.23529412,0.149132941 Z M10.6801471,6.71163294 C10.6887241,6.71149871 10.6973053,6.71149871 10.7058824,6.71163294 C11.0379974,6.70351294 11.3659943,6.91846276 11.4908088,7.22633882 C11.6156234,7.53421488 11.5289386,7.91449853 11.2849265,8.13994176 L6.34375,13.0811182 C6.03930929,13.3820993 5.49010247,13.3820993 5.18566176,13.0811182 L2.71507353,10.61053 C2.39868671,10.3096416 2.39518259,9.75001012 2.70220588,9.43957412 C3.00923,9.12913853 3.568796,9.12653082 3.87316176,9.43957412 L5.76470588,11.3311182 L10.1268382,6.96898588 C10.2527349,6.83796976 10.4231075,6.75048129 10.6029412,6.72450059 C10.6284541,6.71899118 10.6542273,6.71469647 10.6801471,6.71163294 Z M13.0606618,10.4432506 C13.0735253,10.4429492 13.0864012,10.4429492 13.0992647,10.4432506 C13.1249794,10.4420565 13.1507542,10.4420565 13.1764706,10.4432506 L23.0588235,10.4432506 C23.4939065,10.4370947 23.8952206,10.8316534 23.8952206,11.26678 C23.8952206,11.7019066 23.4939065,12.0964657 23.0588235,12.0903094 L13.1764706,12.0903094 C12.7452714,12.1206281 12.3317892,11.7494494 12.3014706,11.3182506 C12.2711519,10.8870514 12.6294626,10.4735692 13.0606618,10.4432506 Z M30.8823529,11.6785447 L29.6341912,13.8403094 L33.3400735,15.8991329 L34.5882353,13.7373682 L30.8823529,11.6785447 Z M10.6801471,14.9469271 C10.6887241,14.9467928 10.6973053,14.9467928 10.7058824,14.9469271 C11.0379974,14.9388071 11.3659943,15.1537569 11.4908088,15.4616329 C11.6156234,15.769509 11.5289386,16.1497926 11.2849265,16.3752359 L6.34375,21.3164124 C6.03930929,21.6173934 5.49010247,21.6173934 5.18566176,21.3164124 L2.71507353,18.8458241 C2.39868671,18.5449357 2.39518259,17.9853042 2.70220588,17.6748682 C3.00923,17.3644326 3.568796,17.3618249 3.87316176,17.6748682 L5.76470588,19.5664124 L10.1268382,15.20428 C10.2527349,15.0732639 10.4231075,14.9857754 10.6029412,14.9597947 C10.6284541,14.9542853 10.6542273,14.9499906 10.6801471,14.9469271 Z M28.8106618,15.2686182 L25.1176471,21.6767065 L28.8106618,23.7226624 C28.8149982,23.7269041 28.8192877,23.7311935 28.8235294,23.73553 L32.5165441,17.3274418 L28.8363971,15.2814859 C28.8277444,15.2773468 28.8191646,15.273057 28.8106618,15.2686182 Z M13.0606618,18.6785447 C13.0735253,18.6782433 13.0864012,18.6782433 13.0992647,18.6785447 C13.1249794,18.6773506 13.1507542,18.6773506 13.1764706,18.6785447 L22.2224265,18.6785447 C22.6575094,18.6723884 23.0588235,19.0669475 23.0588235,19.5020741 C23.0588235,19.9372007 22.6575094,20.3317598 22.2224265,20.3256035 L13.1764706,20.3256035 C12.7452714,20.3559222 12.3317892,19.9847435 12.3014706,19.5535447 C12.2711519,19.1223455 12.6294626,18.7088634 13.0606618,18.6785447 Z M10.6801471,23.1822212 C10.6887241,23.1820869 10.6973053,23.1820869 10.7058824,23.1822212 C11.0379974,23.1741012 11.3659943,23.389051 11.4908088,23.6969271 C11.6156234,24.0048031 11.5289386,24.3850868 11.2849265,24.61053 L6.34375,29.5517065 C6.03930929,29.8526875 5.49010247,29.8526875 5.18566176,29.5517065 L2.71507353,27.0811182 C2.39868671,26.7802298 2.39518259,26.2205984 2.70220588,25.9101624 C3.00923,25.5997268 3.568796,25.5971191 3.87316176,25.9101624 L5.76470588,27.8017065 L10.1268382,23.4395741 C10.2527349,23.308558 10.4231075,23.2210695 10.6029412,23.1950888 C10.6284541,23.1895794 10.6542273,23.1852847 10.6801471,23.1822212 Z M24.5772059,23.2465594 L23.8823529,27.7373682 L27.6783088,24.9836918 L24.5772059,23.2465594 Z M13.0606618,26.9138388 C13.0735253,26.9135374 13.0864012,26.9135374 13.0992647,26.9138388 C13.1249794,26.9126447 13.1507542,26.9126447 13.1764706,26.9138388 L20.1764706,26.9138388 C20.6115535,26.9076829 21.0128676,27.3022416 21.0128676,27.7373682 C21.0128676,28.1724948 20.6115535,28.5670539 20.1764706,28.5608976 L13.1764706,28.5608976 C12.7452714,28.5912163 12.3317892,28.2200376 12.3014706,27.7888388 C12.2711519,27.3576396 12.6294626,26.9441575 13.0606618,26.9138388 Z" transform="translate(17.706 17.557)" stroke="none" class="main-stroke"></path>
  </g></g><style>
          .main-fill {fill: #aa8c41;}
          .main-stroke {stroke: #aa8c41;}
          .secondary-fill {fill: ;}
          .secondary-stroke {stroke: ;}

          .main-fill--darken {fill: #735e2c;}
          .main-stroke--darken {stroke: #735e2c;}
          .secondary-fill--darken {fill: #000000;}
          .secondary-stroke--darken {stroke: #000000;}

          .main-fill--darkener {fill: #4e401e;}
          .main-stroke--darkener {stroke: #4e401e;}
          .secondary-fill--darkener {fill: #000000;}
          .secondary-stroke--darkener {stroke: #000000;}
        </style></svg>