<svg xmlns="http://www.w3.org/2000/svg" width="70" height="70" viewBox="0 0 70 70" style="width: 100%; height: 100%;"><desc>Made with illustrio</desc>
  
<g class="base"><g fill="none" fill-rule="evenodd" stroke="none" class="main-stroke">
    
    <path fill="none" d="M29.8,10.8 L21.8,1 C21.5,0.7 21.1,0.6 20.8,0.9 L18.4,2.7 C18.2,2.8 18.1,3 18.1,3.2 C18.1,3.4 18.1,3.6 18.3,3.8 L18.5,4.1 L13.7,7.5 L10.3,5.7 L10.5,5.4 C10.6,5.2 10.6,5 10.6,4.8 C10.5,4.6 10.4,4.4 10.2,4.3 L7.4,3 C7,2.8 6.6,3 6.4,3.3 L0.1,14.3 C0,14.4 0,14.6 0,14.8 C0.1,15 0.2,15.2 0.4,15.3 L3.1,16.7 C3.2,16.8 3.3,16.8 3.4,16.8 C3.6,16.8 3.8,16.7 4,16.5 C4.2,17 4.5,17.4 4.9,17.8 C4.8,17.9 4.5,18.5 4.6,19.1 C4.7,19.5 4.9,20 5.6,20.4 C6.1,20.7 6.6,20.9 7,20.9 C7.1,21.5 7.4,22.1 8.2,22.5 C8.8,22.9 9.3,23 9.8,23.1 C10,23.6 10.4,24.2 11.1,24.7 C11.7,25.1 12.3,25.3 12.8,25.3 C13,25.3 13.2,25.3 13.4,25.2 C13.9,25 14.2,24.6 14.3,24.4 L14.8,23.5 L16.6,24.4 C16.9,24.6 17.3,24.6 17.6,24.6 C17.8,24.6 18.1,24.6 18.3,24.5 C18.9,24.3 19.3,23.9 19.6,23.4 C19.9,22.9 19.9,22.3 19.8,21.8 C20.3,21.6 20.8,21.2 21,20.7 C21.3,20.2 21.3,19.6 21.2,19.1 C21.7,18.9 22.2,18.5 22.4,18 C22.7,17.5 22.7,16.9 22.6,16.4 C23.1,16.2 23.6,15.8 23.8,15.3 C23.8,15.2 23.8,15.2 23.9,15.1 C24.3,15 25.3,14.6 26,13.3 L26.3,13.6 C26.4,13.8 26.7,13.9 26.9,13.9 C27.1,13.9 27.2,13.9 27.3,13.8 L29.7,12 C29.9,11.9 30,11.7 30,11.5 C30,11.2 30,11 29.8,10.8 L29.8,10.8 Z M8.2,18.1 L7.5,19.4 C7.5,19.4 7.5,19.5 7.4,19.5 L7.4,19.5 C7.3,19.5 7.1,19.5 6.5,19.1 C6.3,19 6.2,18.9 6.2,18.8 C6.2,18.7 6.2,18.6 6.3,18.5 L7,17.3 C7,17.3 7.1,17.2 7.2,17.2 C7.4,17.2 7.6,17.3 7.8,17.4 C8.1,17.7 8.2,18 8.2,18.1 L8.2,18.1 Z M3.2,15 L1.9,14.3 L7.5,4.7 L8.8,5.4 L3.2,15 L3.2,15 Z M10.2,21.3 C10.1,21.4 10.1,21.5 10,21.6 L10,21.6 C10,21.6 9.7,21.6 9.1,21.3 C8.6,21 8.6,20.6 8.6,20.4 C8.7,20.3 8.8,20.1 8.8,20 L9.5,18.8 C9.6,18.6 9.7,18.4 9.7,18.2 L9.8,18.1 C9.9,18 10.5,18.2 11,18.5 C11.3,18.7 11.4,18.9 11.5,19.2 L10.2,21.3 L10.2,21.3 Z M13.1,23.5 C13,23.6 13,23.7 12.9,23.8 C12.9,23.8 12.6,23.9 12,23.5 C11.5,23.2 11.4,22.8 11.3,22.6 C11.4,22.5 11.4,22.4 11.4,22.4 L12.7,20.3 C12.9,20.3 13.4,20.5 13.9,20.8 C14.2,21 14.3,21.2 14.4,21.5 L13.1,23.5 L13.1,23.5 Z M23.8,13.4 C23.6,12.9 23.2,12.4 22.7,12.2 L16.7,9.6 C16.5,9.5 16.2,9.5 16,9.7 L12.7,11.9 C12.6,12 12.4,12 12.2,12 C12,12 11.8,11.9 11.7,11.7 C11.5,11.4 11.5,10.9 11.9,10.6 L19.5,5.2 L24.9,11.9 C24.6,12.8 24.2,13.2 23.8,13.4 L23.8,13.4 Z M26.9,12 L19.9,3.4 L21.1,2.5 L28.1,11.1 L26.9,12 L26.9,12 Z" transform="translate(20 22)" stroke="none" class="main-stroke"></path>
  </g></g><style>
          .main-fill {fill: #aa8c41;}
          .main-stroke {stroke: #aa8c41;}
          .secondary-fill {fill: ;}
          .secondary-stroke {stroke: ;}

          .main-fill--darken {fill: #735e2c;}
          .main-stroke--darken {stroke: #735e2c;}
          .secondary-fill--darken {fill: #000000;}
          .secondary-stroke--darken {stroke: #000000;}

          .main-fill--darkener {fill: #4e401e;}
          .main-stroke--darkener {stroke: #4e401e;}
          .secondary-fill--darkener {fill: #000000;}
          .secondary-stroke--darkener {stroke: #000000;}
        </style></svg>